# xmcd
#
# Track frame offsets: 
#        150
#        10609
#        19452
#        42466
#        58265
#        75354
#        87513
#        102681
#        112802
#
# Disc length: 1695 seconds
#
# Revision: 0
# Processed by: cddbd v1.5.1PL0 Copyright (c) Steve Scherf et al.
# Submitted via: ExactAudioCopy v0.95a5
#
DISCID=6d069d09
DTITLE=Bruce Lambert - The Other Side
DYEAR=2004
DGENRE=Bluegrass
TTITLE0=Highway of Sorrow
TTITLE1=Teasin' the Frets
TTITLE2=If We Never Meet Again
TTITLE3=Before I Go
TTITLE4=Nobody Knows But Me
TTITLE5=Bonaparte Crossing the Rhine
TTITLE6=Lonesome Jailhouse Blues
TTITLE7=O Glory
TTITLE8=The Other Side
EXTD=Produced by Chris Neville and Bruce Lambert\nRecorded at 916 Prod
EXTD=uctions, Oak Park, IL\nMastered by David Glasser, Airshow Masteri
EXTD=ng, Boulder, CO
EXTT0=
EXTT1=
EXTT2=
EXTT3=
EXTT4=
EXTT5=
EXTT6=
EXTT7=
EXTT8=
PLAYORDER=
